<?xml version="1.0" encoding="UTF-8" standalone="no"?>
<svg
   xmlns:dc="http://purl.org/dc/elements/1.1/"
   xmlns:cc="http://creativecommons.org/ns#"
   xmlns:rdf="http://www.w3.org/1999/02/22-rdf-syntax-ns#"
   xmlns:svg="http://www.w3.org/2000/svg"
   xmlns="http://www.w3.org/2000/svg"
   viewBox="0 0 800 800"
   height="800"
   width="800"
   xml:space="preserve"
   id="svg2"
   version="1.1"><metadata
     id="metadata8"><rdf:RDF><cc:Work
         rdf:about=""><dc:format>image/svg+xml</dc:format><dc:type
           rdf:resource="http://purl.org/dc/dcmitype/StillImage" /></cc:Work></rdf:RDF></metadata><defs
     id="defs6"><clipPath
       id="clipPath18"
       clipPathUnits="userSpaceOnUse"><path
         id="path16"
         d="M 0,600 H 600 V 0 H 0 Z" /></clipPath><clipPath
       id="clipPath26"
       clipPathUnits="userSpaceOnUse"><path
         id="path24"
         d="M 194,478 H 466 V 62 H 194 Z" /></clipPath></defs><g
     transform="matrix(1.3333333,0,0,-1.3333333,0,800)"
     id="g10"><g
       id="g12"><g
         clip-path="url(#clipPath18)"
         id="g14"><g
           id="g20"><g
             id="g22" /><g
             id="g34"><g
               id="g32"
               clip-path="url(#clipPath26)"><g
                 id="g30"
                 transform="translate(254,97.7129)"><path
                   id="path28"
                   style="fill:#dcdddd;fill-opacity:1;fill-rule:nonzero;stroke:none"
                   d="m 0,0 v -27.713 c 0,-4.418 3.582,-8 8,-8 h 136 c 4.418,0 8,3.582 8,8 V 0 c 36.176,24.467 60,65.869 60,112.732 0,34.243 -13.688,67.405 -39.578,95.899 -26.25,28.896 -58.922,64.857 -58.922,111.14 0,21.333 7.391,37.694 11.07,44.516 H 128 c 4.418,0 8,3.582 8,8 0,4.418 -3.582,8 -8,8 h -8 -88 -8 c -4.418,0 -8,-3.582 -8,-8 0,-4.418 3.582,-8 8,-8 h 3.43 C 31.117,357.449 38.5,341.094 38.5,319.771 38.5,273.488 5.828,237.527 -20.422,208.633 -46.313,180.137 -60,146.975 -60,112.732 -60,65.869 -36.176,24.467 0,0" /></g></g></g></g><g
           transform="translate(392.5,328.9648)"
           id="g36"><path
             id="path38"
             style="fill:#ffffff;fill-opacity:1;fill-rule:nonzero;stroke:none"
             d="m 0,0 c -27.492,30.262 -61,67.668 -61,116.52 0,31.332 14.5,52.515 14.5,52.515 h -44 -44 c 0,0 14.5,-21.183 14.5,-52.515 0,-48.852 -33.508,-86.258 -61,-116.52 -22.031,-24.246 -37.5,-55.168 -37.5,-90.52 0,-70.695 57.313,-128 128,-128 70.688,0 128,57.305 128,128 C 37.5,-55.168 22.031,-24.246 0,0" /></g><g
           transform="translate(392.5,328.9648)"
           id="g40"><path
             id="path42"
             style="fill:none;stroke:#231815;stroke-width:16;stroke-linecap:butt;stroke-linejoin:round;stroke-miterlimit:10;stroke-dasharray:none;stroke-opacity:1"
             d="m 0,0 c -27.492,30.262 -61,67.668 -61,116.52 0,31.332 14.5,52.515 14.5,52.515 h -44 -44 c 0,0 14.5,-21.183 14.5,-52.515 0,-48.852 -33.508,-86.258 -61,-116.52 -22.031,-24.246 -37.5,-55.168 -37.5,-90.52 0,-70.695 57.313,-128 128,-128 70.688,0 128,57.305 128,128 C 37.5,-55.168 22.031,-24.246 0,0 Z" /></g><path
           id="path44"
           style="fill:#ffffff;fill-opacity:1;fill-rule:nonzero;stroke:#231815;stroke-width:16;stroke-linecap:butt;stroke-linejoin:round;stroke-miterlimit:10;stroke-dasharray:none;stroke-opacity:1"
           d="M 370,98 H 234 v 32 h 136 z" /><g
           transform="translate(354,498)"
           id="g46"><path
             id="path48"
             style="fill:none;stroke:#231815;stroke-width:16;stroke-linecap:round;stroke-linejoin:round;stroke-miterlimit:10;stroke-dasharray:none;stroke-opacity:1"
             d="M 0,0 H -104" /></g></g></g></g></svg>