<?xml version="1.0" encoding="UTF-8" standalone="no"?>
<svg
   xmlns:dc="http://purl.org/dc/elements/1.1/"
   xmlns:cc="http://creativecommons.org/ns#"
   xmlns:rdf="http://www.w3.org/1999/02/22-rdf-syntax-ns#"
   xmlns:svg="http://www.w3.org/2000/svg"
   xmlns="http://www.w3.org/2000/svg"
   viewBox="0 0 800 800"
   height="800"
   width="800"
   xml:space="preserve"
   id="svg2"
   version="1.1"><metadata
     id="metadata8"><rdf:RDF><cc:Work
         rdf:about=""><dc:format>image/svg+xml</dc:format><dc:type
           rdf:resource="http://purl.org/dc/dcmitype/StillImage" /></cc:Work></rdf:RDF></metadata><defs
     id="defs6"><clipPath
       id="clipPath18"
       clipPathUnits="userSpaceOnUse"><path
         id="path16"
         d="M 0,600 H 600 V 0 H 0 Z" /></clipPath><clipPath
       id="clipPath26"
       clipPathUnits="userSpaceOnUse"><path
         id="path24"
         d="M 122,492 H 514 V 76 H 122 Z" /></clipPath></defs><g
     transform="matrix(1.3333333,0,0,-1.3333333,0,800)"
     id="g10"><g
       id="g12"><g
         clip-path="url(#clipPath18)"
         id="g14"><g
           id="g20"><g
             id="g22" /><g
             id="g34"><g
               id="g32"
               clip-path="url(#clipPath26)"><g
                 id="g30"
                 transform="translate(506,236)"><path
                   id="path28"
                   style="fill:#dcdddd;fill-opacity:1;fill-rule:nonzero;stroke:none"
                   d="M 0,0 H -113.063 C -119.242,51.389 -154.609,95.82 -204,112.721 V 209.4 c 9.305,3.305 16,12.174 16,22.6 0,13.234 -10.766,24 -24,24 h -72 c -13.234,0 -24,-10.766 -24,-24 0,-10.426 6.695,-19.295 16,-22.6 V 112.684 C -346.461,94.041 -384,41.975 -384,-16 c 0,-43.303 20.367,-81.914 52,-106.84 V -152 c 0,-4.418 3.582,-8 8,-8 h 152 c 4.418,0 8,3.582 8,8 v 29.16 c 5.828,4.594 11.293,9.629 16.297,15.098 6.484,-14.297 19.762,-24.844 35.703,-27.535 V -152 c 0,-4.418 3.582,-8 8,-8 h 64 c 4.418,0 8,3.582 8,8 v 16.723 C -9.336,-131.451 8,-111.736 8,-88 V -8 C 8,-3.582 4.418,0 0,0" /></g></g></g></g><g
           transform="translate(270,362.8672)"
           id="g36"><path
             id="path38"
             style="fill:#ffffff;fill-opacity:1;fill-rule:nonzero;stroke:none"
             d="M 0,0 V 109.133 H -72 V -0.035 c -53.156,-15.559 -92,-64.645 -92,-122.832 0,-70.692 57.309,-128 128,-128 70.691,0 128,57.308 128,128 C 92,-64.676 53.164,-15.551 0,0" /></g><g
           transform="translate(270,362.8672)"
           id="g40"><path
             id="path42"
             style="fill:none;stroke:#231815;stroke-width:16;stroke-linecap:round;stroke-linejoin:round;stroke-miterlimit:10;stroke-dasharray:none;stroke-opacity:1"
             d="M 0,0 V 109.133 H -72 V -0.035 c -53.156,-15.559 -92,-64.645 -92,-122.832 0,-70.692 57.309,-128 128,-128 70.691,0 128,57.308 128,128 C 92,-64.676 53.164,-15.551 0,0 Z" /></g><g
           transform="translate(270,472)"
           id="g44"><path
             id="path46"
             style="fill:#ffffff;fill-opacity:1;fill-rule:nonzero;stroke:none"
             d="m 0,0 h -72 c -8.836,0 -16,7.164 -16,16 0,8.836 7.164,16 16,16 H 0 C 8.836,32 16,24.836 16,16 16,7.164 8.836,0 0,0" /></g><g
           transform="translate(270,472)"
           id="g48"><path
             id="path50"
             style="fill:none;stroke:#231815;stroke-width:16;stroke-linecap:round;stroke-linejoin:round;stroke-miterlimit:10;stroke-dasharray:none;stroke-opacity:1"
             d="m 0,0 h -72 c -8.836,0 -16,7.164 -16,16 0,8.836 7.164,16 16,16 H 0 C 8.836,32 16,24.836 16,16 16,7.164 8.836,0 0,0 Z" /></g><path
           id="path52"
           style="fill:#ffffff;fill-opacity:1;fill-rule:nonzero;stroke:#231815;stroke-width:16;stroke-linecap:round;stroke-linejoin:round;stroke-miterlimit:10;stroke-dasharray:none;stroke-opacity:1"
           d="M 310,104 H 158 v 33.078 h 152 z" /><g
           transform="translate(270,362.8672)"
           id="g54"><path
             id="path56"
             style="fill:#ffffff;fill-opacity:1;fill-rule:nonzero;stroke:#231815;stroke-width:16;stroke-linecap:round;stroke-linejoin:round;stroke-miterlimit:10;stroke-dasharray:none;stroke-opacity:1"
             d="M 0,0 H -36" /></g><g
           transform="translate(482,248)"
           id="g58"><path
             id="path60"
             style="fill:#ffffff;fill-opacity:1;fill-rule:nonzero;stroke:none"
             d="m 0,0 v -80 c 0,-22.09 -17.906,-40 -40,-40 h -64 c -22.094,0 -40,17.91 -40,40 V 0 Z" /></g><g
           transform="translate(482,248)"
           id="g62"><path
             id="path64"
             style="fill:none;stroke:#231815;stroke-width:16;stroke-linecap:round;stroke-linejoin:round;stroke-miterlimit:10;stroke-dasharray:none;stroke-opacity:1"
             d="m 0,0 v -80 c 0,-22.09 -17.906,-40 -40,-40 h -64 c -22.094,0 -40,17.91 -40,40 V 0 Z" /></g><path
           id="path66"
           style="fill:#ffffff;fill-opacity:1;fill-rule:nonzero;stroke:#231815;stroke-width:16;stroke-linecap:round;stroke-linejoin:round;stroke-miterlimit:10;stroke-dasharray:none;stroke-opacity:1"
           d="m 442,104 h -64 v 24 h 64 z" /></g></g></g></svg>