<?xml version="1.0" encoding="utf-8"?>
<!-- Generator: Adobe Illustrator 26.5.0, SVG Export Plug-In . SVG Version: 6.00 Build 0)  -->
<svg version="1.1"
	 id="svg2" xmlns:svg="http://www.w3.org/2000/svg" xmlns:dc="http://purl.org/dc/elements/1.1/" xmlns:rdf="http://www.w3.org/1999/02/22-rdf-syntax-ns#" xmlns:cc="http://creativecommons.org/ns#"
	 xmlns="http://www.w3.org/2000/svg" xmlns:xlink="http://www.w3.org/1999/xlink" x="0px" y="0px" viewBox="0 0 800 800"
	 style="enable-background:new 0 0 800 800;" xml:space="preserve">
<style type="text/css">
	.st0{clip-path:url(#SVGID_00000101094569955575529940000014270085590980305322_);}
	.st1{clip-path:url(#SVGID_00000145055589150240041010000009736896732256451209_);}
	.st2{fill:#DCDDDD;}
	.st3{fill:#BDDEE0;}
	.st4{fill:none;stroke:#231815;stroke-width:21.3333;stroke-linecap:round;stroke-linejoin:round;stroke-miterlimit:13.3333;}
	.st5{fill:#FFFFFF;}
	.st6{fill:#BDDEE0;stroke:#231815;stroke-width:21.3333;stroke-linecap:round;stroke-linejoin:round;stroke-miterlimit:13.3333;}
	.st7{fill:#FFFFFF;stroke:#231815;stroke-width:21.3333;stroke-linecap:round;stroke-linejoin:round;stroke-miterlimit:13.3333;}
	.st8{fill:#DAE7F2;}
	.st9{fill:#DAE7F2;stroke:#231815;stroke-width:21.3333;stroke-linecap:round;stroke-linejoin:round;stroke-miterlimit:13.3333;}
</style>
<g id="g10" transform="matrix(1.3333333,0,0,-1.3333333,0,800)">
	<g id="g12">
		<g>
			<defs>
				<rect id="SVGID_1_" x="-100" y="-100" width="800" height="800"/>
			</defs>
			<clipPath id="SVGID_00000162354636941044946640000004606522372066808485_">
				<use xlink:href="#SVGID_1_"  style="overflow:visible;"/>
			</clipPath>
			<g id="g14" style="clip-path:url(#SVGID_00000162354636941044946640000004606522372066808485_);">
				<g id="g20">
					<g id="g22">
					</g>
					<g id="g34">
						<g>
							<defs>
								<rect id="SVGID_00000077307110184371548560000002147018493698720666_" x="56.7" y="6.7" width="522.7" height="554.7"/>
							</defs>
							<clipPath id="SVGID_00000037659829637861960450000016741757373369878192_">
								<use xlink:href="#SVGID_00000077307110184371548560000002147018493698720666_"  style="overflow:visible;"/>
							</clipPath>
							<g id="g32" style="clip-path:url(#SVGID_00000037659829637861960450000016741757373369878192_);">
								<g id="g30" transform="translate(506,236)">
									<path id="path28" class="st2" d="M0,0h-113.1c-6.2,51.4-41.5,95.8-90.9,112.7v96.7c9.3,3.3,16,12.2,16,22.6
										c0,13.2-10.8,24-24,24h-72c-13.2,0-24-10.8-24-24c0-10.4,6.7-19.3,16-22.6v-96.7C-346.5,94-384,42-384-16
										c0-43.3,20.4-81.9,52-106.8V-152c0-4.4,3.6-8,8-8h152c4.4,0,8,3.6,8,8v29.2c5.8,4.6,11.3,9.6,16.3,15.1
										c6.5-14.3,19.8-24.8,35.7-27.5V-152c0-4.4,3.6-8,8-8h64c4.4,0,8,3.6,8,8v16.7C-9.3-131.5,8-111.7,8-88v80C8-3.6,4.4,0,0,0"
										/>
								</g>
							</g>
						</g>
					</g>
				</g>
				<g id="g36" transform="translate(270,362.8672)">
					<path id="path38" class="st3" d="M0,0v109.1h-72V0c-53.2-15.6-92-64.6-92-122.8c0-70.7,57.3-128,128-128s128,57.3,128,128
						C92-64.7,53.2-15.6,0,0"/>
				</g>
				<g id="g40" transform="translate(270,362.8672)">
					<path id="path42" class="st4" d="M0,0v109.1h-72V0c-53.2-15.6-92-64.6-92-122.8c0-70.7,57.3-128,128-128s128,57.3,128,128
						C92-64.7,53.2-15.6,0,0z"/>
				</g>
				<g id="g44" transform="translate(270,472)">
					<path id="path46" class="st5" d="M0,0h-72c-8.8,0-16,7.2-16,16s7.2,16,16,16H0c8.8,0,16-7.2,16-16S8.8,0,0,0"/>
				</g>
				<g id="g48" transform="translate(270,472)">
					<path id="path50" class="st4" d="M0,0h-72c-8.8,0-16,7.2-16,16s7.2,16,16,16H0c8.8,0,16-7.2,16-16S8.8,0,0,0z"/>
				</g>
				<path id="path52" class="st6" d="M310,104H158v33.1h152V104z"/>
				<g id="g54" transform="translate(270,362.8672)">
					<path id="path56" class="st7" d="M0,0h-36"/>
				</g>
				<g id="g58" transform="translate(482,248)">
					<path id="path60" class="st8" d="M0,0v-80c0-22.1-17.9-40-40-40h-64c-22.1,0-40,17.9-40,40V0H0z"/>
				</g>
				<g id="g62" transform="translate(482,248)">
					<path id="path64" class="st4" d="M0,0v-80c0-22.1-17.9-40-40-40h-64c-22.1,0-40,17.9-40,40V0H0z"/>
				</g>
				<path id="path66" class="st9" d="M442,104h-64v24h64V104z"/>
			</g>
		</g>
	</g>
</g>
</svg>
