<?xml version="1.0" encoding="UTF-8" standalone="no"?>
<svg
   xmlns:dc="http://purl.org/dc/elements/1.1/"
   xmlns:cc="http://creativecommons.org/ns#"
   xmlns:rdf="http://www.w3.org/1999/02/22-rdf-syntax-ns#"
   xmlns:svg="http://www.w3.org/2000/svg"
   xmlns="http://www.w3.org/2000/svg"
   viewBox="0 0 800 800"
   height="800"
   width="800"
   xml:space="preserve"
   id="svg2"
   version="1.1"><metadata
     id="metadata8"><rdf:RDF><cc:Work
         rdf:about=""><dc:format>image/svg+xml</dc:format><dc:type
           rdf:resource="http://purl.org/dc/dcmitype/StillImage" /></cc:Work></rdf:RDF></metadata><defs
     id="defs6"><clipPath
       id="clipPath18"
       clipPathUnits="userSpaceOnUse"><path
         id="path16"
         d="M 0,600 H 600 V 0 H 0 Z" /></clipPath><clipPath
       id="clipPath26"
       clipPathUnits="userSpaceOnUse"><path
         id="path24"
         d="M 100,470 H 516 V 118 H 100 Z" /></clipPath></defs><g
     transform="matrix(1.3333333,0,0,-1.3333333,0,800)"
     id="g10"><g
       id="g12"><g
         clip-path="url(#clipPath18)"
         id="g14"><g
           id="g20"><g
             id="g22" /><g
             id="g34"><g
               id="g32"
               clip-path="url(#clipPath26)"><g
                 id="g30"
                 transform="translate(493.3398,320.6445)"><path
                   id="path28"
                   style="fill:#dcdddd;fill-opacity:1;fill-rule:nonzero;stroke:none"
                   d="m 0,0 v 33.926 c 0,10.715 -8.715,19.429 -19.426,19.429 h -94.527 c -4.317,8.305 -9.391,16.145 -15.141,23.442 0.004,0.098 0.028,0.187 0.028,0.285 v 48.273 c 0,13.235 -10.766,24 -24,24 h -184.547 c -13.235,0 -24,-10.765 -24,-24 V 77.082 c 0,-0.098 0.023,-0.187 0.027,-0.285 -19.859,-25.195 -31.754,-56.945 -31.754,-91.442 0,-60.601 38.762,-177.578 40.41,-182.531 1.09,-3.265 4.145,-5.469 7.59,-5.469 h 188.574 11.426 131.434 c 3.445,0 6.5,2.204 7.59,5.469 1.183,3.551 28.976,87.449 28.976,131.102 C 22.66,-41.199 14.184,-18.277 0,0" /></g></g></g></g><g
           transform="translate(224,466)"
           id="g36"><path
             id="path38"
             style="fill:#3d2b24;fill-opacity:1;fill-rule:nonzero;stroke:none"
             d="m 0,0 c -77.316,0 -140,-62.68 -140,-140 0,-60 40,-180 40,-180 H 0 100 c 0,0 40,120 40,180 C 140,-62.68 77.316,0 0,0" /></g><g
           transform="translate(224,466)"
           id="g40"><path
             id="path42"
             style="fill:none;stroke:#231815;stroke-width:16;stroke-linecap:round;stroke-linejoin:round;stroke-miterlimit:10;stroke-dasharray:none;stroke-opacity:1"
             d="m 0,0 c -77.316,0 -140,-62.68 -140,-140 0,-60 40,-180 40,-180 H 0 100 c 0,0 40,120 40,180 C 140,-62.68 77.316,0 0,0 Z" /></g><g
           transform="translate(332.2734,466)"
           id="g44"><path
             id="path46"
             style="fill:#795548;fill-opacity:1;fill-rule:nonzero;stroke:none"
             d="m 0,0 c 0,8.836 -7.164,16 -16,16 h -184.547 c -8.836,0 -16,-7.164 -16,-16 V -48.273 H 0 Z" /></g><g
           transform="translate(332.2734,466)"
           id="g48"><path
             id="path50"
             style="fill:none;stroke:#231815;stroke-width:16;stroke-linecap:round;stroke-linejoin:round;stroke-miterlimit:10;stroke-dasharray:none;stroke-opacity:1"
             d="m 0,0 c 0,8.836 -7.164,16 -16,16 h -184.547 c -8.836,0 -16,-7.164 -16,-16 V -48.273 H 0 Z" /></g><g
           transform="translate(291.7266,449.8633)"
           id="g52"><path
             id="path54"
             style="fill:#595757;fill-opacity:1;fill-rule:nonzero;stroke:#221e1f;stroke-width:16;stroke-linecap:round;stroke-linejoin:round;stroke-miterlimit:10;stroke-dasharray:none;stroke-opacity:1"
             d="M 0,0 H -40" /></g><g
           transform="translate(323.7266,310)"
           id="g56"><path
             id="path58"
             style="fill:#795548;fill-opacity:1;fill-rule:nonzero;stroke:none"
             d="m 0,0 h -40 c -8.836,0 -16,7.164 -16,16 0,8.836 7.164,16 16,16 H 0 C 8.836,32 16,24.836 16,16 16,7.164 8.836,0 0,0" /></g><g
           transform="translate(323.7266,310)"
           id="g60"><path
             id="path62"
             style="fill:none;stroke:#231815;stroke-width:16;stroke-linecap:round;stroke-linejoin:round;stroke-miterlimit:10;stroke-dasharray:none;stroke-opacity:1"
             d="m 0,0 h -40 c -8.836,0 -16,7.164 -16,16 0,8.836 7.164,16 16,16 H 0 C 8.836,32 16,24.836 16,16 16,7.164 8.836,0 0,0 Z" /></g><g
           transform="translate(384.0039,374.5703)"
           id="g64"><path
             id="path66"
             style="fill:#5b4036;fill-opacity:1;fill-rule:nonzero;stroke:none"
             d="m 0,0 c -55.227,0 -99.996,-44.77 -99.996,-100 0,-42.855 28.566,-128.57 28.566,-128.57 H 0 71.43 c 0,0 28.566,85.715 28.566,128.57 C 99.996,-44.77 55.227,0 0,0" /></g><g
           transform="translate(384.0039,374.5703)"
           id="g68"><path
             id="path70"
             style="fill:none;stroke:#231815;stroke-width:16;stroke-linecap:round;stroke-linejoin:round;stroke-miterlimit:10;stroke-dasharray:none;stroke-opacity:1"
             d="m 0,0 c -55.227,0 -99.996,-44.77 -99.996,-100 0,-42.855 28.566,-128.57 28.566,-128.57 H 0 71.43 c 0,0 28.566,85.715 28.566,128.57 C 99.996,-44.77 55.227,0 0,0 Z" /></g><g
           transform="translate(461.3398,374.5703)"
           id="g72"><path
             id="path74"
             style="fill:#795548;fill-opacity:1;fill-rule:nonzero;stroke:none"
             d="m 0,0 c 0,6.316 -5.117,11.43 -11.426,11.43 h -131.82 c -6.309,0 -11.426,-5.114 -11.426,-11.43 V -34.48 H 0 Z" /></g><g
           transform="translate(461.3398,374.5703)"
           id="g76"><path
             id="path78"
             style="fill:none;stroke:#231815;stroke-width:16;stroke-linecap:round;stroke-linejoin:round;stroke-miterlimit:10;stroke-dasharray:none;stroke-opacity:1"
             d="m 0,0 c 0,6.316 -5.117,11.43 -11.426,11.43 h -131.82 c -6.309,0 -11.426,-5.114 -11.426,-11.43 V -34.48 H 0 Z" /></g><g
           transform="translate(432.3789,363.0469)"
           id="g80"><path
             id="path82"
             style="fill:#595757;fill-opacity:1;fill-rule:nonzero;stroke:#221e1f;stroke-width:16;stroke-linecap:round;stroke-linejoin:round;stroke-miterlimit:10;stroke-dasharray:none;stroke-opacity:1"
             d="M 0,0 H -28.57" /></g><g
           transform="translate(455.2344,263.1445)"
           id="g84"><path
             id="path86"
             style="fill:#795548;fill-opacity:1;fill-rule:nonzero;stroke:none"
             d="m 0,0 h -28.566 c -6.313,0 -11.43,5.117 -11.43,11.426 0,6.312 5.117,11.426 11.43,11.426 H 0 c 6.316,0 11.43,-5.114 11.43,-11.426 C 11.43,5.117 6.316,0 0,0" /></g><g
           transform="translate(455.2344,263.1445)"
           id="g88"><path
             id="path90"
             style="fill:none;stroke:#231815;stroke-width:16;stroke-linecap:round;stroke-linejoin:round;stroke-miterlimit:10;stroke-dasharray:none;stroke-opacity:1"
             d="m 0,0 h -28.566 c -6.313,0 -11.43,5.117 -11.43,11.426 0,6.312 5.117,11.426 11.43,11.426 H 0 c 6.316,0 11.43,-5.114 11.43,-11.426 C 11.43,5.117 6.316,0 0,0 Z" /></g></g></g></g></svg>